<svg width="22" height="22" viewBox="0 0 20 20" fill="none" xmlns="http://www.w3.org/2000/svg">
<path id="icon" fill-rule="evenodd" clip-rule="evenodd" d="M4.17167 8.38923C5.73167 11.4369 8.245 13.9246 11.3108 15.4862L13.6942 13.1169C13.9867 12.8262 14.42 12.7292 14.7992 12.8585C16.0125 13.2569 17.3233 13.4723 18.6667 13.4723C19.2625 13.4723 19.75 13.9569 19.75 14.5492V18.3077C19.75 18.9 19.2625 19.3846 18.6667 19.3846C8.49417 19.3846 0.25 11.1892 0.25 1.07692C0.25 0.484615 0.7375 0 1.33333 0H5.125C5.72083 0 6.20833 0.484615 6.20833 1.07692C6.20833 2.42308 6.425 3.71538 6.82583 4.92154C6.945 5.29846 6.85833 5.71846 6.555 6.02L4.17167 8.38923Z" fill="white"/>
</svg>
