<svg width="22" height="22" viewBox="0 0 20 20" fill="none" xmlns="http://www.w3.org/2000/svg">
<path id="icon" fill-rule="evenodd" clip-rule="evenodd" d="M4.17167 8.69697C5.73167 11.7447 8.245 14.2324 11.3108 15.7939L13.6942 13.4247C13.9867 13.1339 14.42 13.037 14.7992 13.1662C16.0125 13.5647 17.3233 13.78 18.6667 13.78C19.2625 13.78 19.75 14.2647 19.75 14.857V18.6154C19.75 19.2077 19.2625 19.6924 18.6667 19.6924C8.49417 19.6924 0.25 11.497 0.25 1.38466C0.25 0.792355 0.7375 0.307739 1.33333 0.307739H5.125C5.72083 0.307739 6.20833 0.792355 6.20833 1.38466C6.20833 2.73082 6.425 4.02312 6.82583 5.22928C6.945 5.6062 6.85833 6.0262 6.555 6.32774L4.17167 8.69697Z" fill="#DAE3A6"/>
</svg>
