<svg width="19" height="16" viewBox="0 0 19 16" fill="none" xmlns="http://www.w3.org/2000/svg">
<g id="Team">
<g id="Human">
<circle id="Ellipse 3" cx="12.25" cy="2.84091" r="2.84091" fill="#DA8A50"/>
<path id="Vector 1" d="M18.4457 13.6363H6.05427C5.49102 8.58581 9.43376 7.95453 12.25 7.95453C15.0662 7.95453 19.009 8.58581 18.4457 13.6363Z" fill="#DA8A50"/>
</g>
<g id="Human_2">
<circle id="Ellipse 3_2" cx="7.24997" cy="3.84091" r="3.34091" fill="#DA8A50" stroke="white"/>
<path id="Vector 1_2" d="M13.4457 15.1363H13.8931L13.9427 14.6918C14.0906 13.3651 13.9472 12.2867 13.5699 11.4186C13.1905 10.5458 12.5891 9.91896 11.8795 9.47705C10.4851 8.60882 8.67207 8.45453 7.25 8.45453C5.82792 8.45453 4.01486 8.60882 2.62053 9.47705C1.91085 9.91896 1.30947 10.5458 0.930138 11.4186C0.552775 12.2867 0.409394 13.3651 0.557348 14.6918L0.606929 15.1363H1.05427H13.4457Z" fill="#DA8A50" stroke="white"/>
</g>
</g>
</svg>
